<svg width="42" height="48" viewBox="0 0 42 48" fill="none" xmlns="http://www.w3.org/2000/svg">
<path d="M24.8077 36.5707L23.7684 35.5288L23.4804 35.2413L20.8447 32.6024L19.3474 31.1036L17.921 29.6766L16.5387 28.2923L15.2121 26.9645L14.998 26.7502L16.5387 25.208L17.921 23.8237L18.9184 22.8268L20.6732 21.0688L20.8447 20.898L20.6732 20.7264L18.6365 18.6877L17.921 17.9715L16.5387 16.588L14.9965 15.0443L14.502 14.5493L12.405 12.4503L12.0743 12.1185L10.3682 10.4116H0V47.6565H17.4996L17.9202 47.234L20.6725 44.4806L26.6921 38.4553L24.8077 36.5707ZM16.5387 42.7653L15.7867 43.5181H4.13526V14.5493H8.65532L14.998 20.898L13.0702 22.8261L12.405 23.4919L9.1506 26.7494L9.36472 26.9637L13.5 31.1029L14.9988 32.6031L16.5395 34.1453L17.6345 35.2413L17.9217 35.5288L20.674 38.2837L20.8455 38.4553L16.5395 42.7653H16.5387Z" fill="white"/>
<path d="M16.4945 11.0858L17.5338 12.1277L17.8219 12.4152L20.4576 15.0542L21.9549 16.5529L23.3813 17.9799L24.7635 19.3642L26.0901 20.692L26.3042 20.9063L24.7635 22.4485L23.3813 23.8328L22.3838 24.8297L20.629 26.5877L20.4576 26.7585L20.629 26.9301L22.6658 28.9688L23.3813 29.685L24.7635 31.0685L26.3057 32.6123L26.8003 33.1072L28.8972 35.2062L29.2279 35.538L30.934 37.2449H41.3015V0H23.8019L23.3813 0.422535L20.629 3.17588L14.6094 9.2012L16.4937 11.0858H16.4945ZM24.7635 4.89119L25.5156 4.13841H37.1662V33.1072H32.6462L26.3035 26.7585L28.2313 24.8304L28.8965 24.1646L32.1509 20.9071L31.9368 20.6928L27.8015 16.5536L26.3027 15.0534L24.762 13.5112L23.667 12.4152L23.3797 12.1277L20.6275 9.37281L20.456 9.2012L24.762 4.89119H24.7635Z" fill="white"/>
</svg>
